<?xml version="1.0" encoding="UTF-8"?>
<svg id="Layer_1" data-name="Layer 1" xmlns="http://www.w3.org/2000/svg" viewBox="0 0 1962.34 1962.34">
  <defs>
    <style>
      .cls-1 {
        fill: #04111b;
      }

      .cls-1, .cls-2, .cls-3, .cls-4, .cls-5, .cls-6, .cls-7, .cls-8, .cls-9, .cls-10, .cls-11, .cls-12, .cls-13, .cls-14, .cls-15, .cls-16, .cls-17, .cls-18, .cls-19, .cls-20, .cls-21, .cls-22, .cls-23, .cls-24, .cls-25, .cls-26, .cls-27, .cls-28, .cls-29, .cls-30, .cls-31, .cls-32, .cls-33, .cls-34, .cls-35, .cls-36 {
        stroke-width: 0px;
      }

      .cls-2 {
        fill: #4b2f3f;
      }

      .cls-3 {
        fill: #8b9da8;
      }

      .cls-4 {
        fill: #285175;
      }

      .cls-5 {
        fill: #182f44;
      }

      .cls-6 {
        fill: #4d1832;
      }

      .cls-37 {
        fill: none;
        stroke: #000;
        stroke-miterlimit: 10;
      }

      .cls-7 {
        fill: #254b71;
      }

      .cls-8 {
        fill: #9fb1b7;
      }

      .cls-9 {
        fill: #7a929c;
      }

      .cls-10 {
        fill: #72808c;
      }

      .cls-11 {
        fill: #46293f;
      }

      .cls-12 {
        fill: #628ead;
      }

      .cls-13 {
        fill: #808d97;
      }

      .cls-14 {
        fill: #0d2533;
      }

      .cls-15 {
        fill: #444e77;
      }

      .cls-16 {
        fill: #9ea4bc;
      }

      .cls-17 {
        fill: #3c6c90;
      }

      .cls-18 {
        fill: #11365c;
      }

      .cls-19 {
        fill: #331b2a;
      }

      .cls-20 {
        fill: #594b6e;
      }

      .cls-21 {
        fill: #40374f;
      }

      .cls-22 {
        fill: #2f567a;
      }

      .cls-23 {
        fill: #653f54;
      }

      .cls-24 {
        fill: #d8dee3;
      }

      .cls-25 {
        fill: #bbcbd2;
      }

      .cls-26 {
        fill: #3c4d5e;
      }

      .cls-27 {
        fill: #6c2741;
      }

      .cls-28 {
        fill: #11253c;
      }

      .cls-29 {
        fill: #2a445f;
      }

      .cls-30 {
        fill: #4b273c;
      }

      .cls-31 {
        fill: #541730;
      }

      .cls-32 {
        fill: #718e99;
      }

      .cls-33 {
        fill: #6d1f44;
      }

      .cls-34 {
        fill: #3a0a23;
      }

      .cls-35 {
        fill: #4f1730;
      }

      .cls-36 {
        fill: #aeb9bc;
      }
    </style>
  </defs>
  <g>
    <polygon class="cls-32" points="843.82 1872.78 800.19 1873.73 747.86 1550.57 798.02 1579.39 843.82 1872.78"/>
    <polygon class="cls-10" points="798.01 1579.39 747.85 1550.57 735.89 1503.54 790.69 1529.94 798.01 1579.39"/>
    <path class="cls-17" d="M1369.61,147.98l-105.89-6.22s-.05,0-.07-.01c-1.06-.1-1.75-.11-1.94-.11h-.06l-187.74-15.4,147.76-37.63,147.94,59.38Z"/>
    <polygon class="cls-11" points="1242.39 201.49 1023.2 236.73 1000.3 239.43 1005.76 200.7 1073.91 126.23 1242.39 201.49"/>
    <polygon class="cls-23" points="1144.89 343.97 1140.97 360.09 1034.47 456.62 978.85 341.04 1000.3 239.43 1023.2 236.73 1144.89 343.97"/>
    <polygon class="cls-11" points="1149.33 499.16 1034.47 456.62 1140.97 360.09 1149.33 499.16"/>
    <polygon class="cls-19" points="1318.72 563.47 1130.07 532.19 1149.33 499.16 1318.72 563.47"/>
    <polygon class="cls-30" points="1318.72 563.47 1076.63 609.03 1130.07 532.19 1318.72 563.47"/>
    <polygon class="cls-2" points="1066 741.83 1066 693.01 1035.47 664.68 1003.57 571.56 1076.63 609.03 1083.18 790.66 1059.73 811.84 1066 741.83"/>
    <polygon class="cls-17" points="667.69 998.55 555.65 1178.36 470.69 1211.06 590.27 1015.47 667.69 998.55"/>
    <polygon class="cls-29" points="832.91 957.82 705.13 1117.7 555.65 1178.36 667.69 998.55 832.91 957.82"/>
    <polygon class="cls-28" points="725.23 1109.29 780.56 1088.46 751.67 1105.48 709.41 1120.01 687.32 1156.44 680.06 1168.82 419.79 1252.33 319.47 1293.93 458.32 1053.08 202.43 1176.77 237.68 1130.08 567.1 877.57 346 1256.78 470.69 1211.06 555.65 1178.36 705.13 1117.7 832.91 957.82 841.09 956.88 725.23 1109.29"/>
    <polygon class="cls-10" points="917.67 1070.61 873.26 1105.96 667.34 1192.96 680.06 1168.82 687.32 1156.44 901.06 1071.66 917.67 1070.61"/>
    <path class="cls-25" d="M1038.72,1696.39l-46.05,2.39-55.25-98.11-146.73-70.72-54.8-26.4-164.16-79.11-25.44-51.12s112.32-146.39,121.05-180.36l205.92-87-119.96,97.64-58.34,44.77-80.69,118.59,14.17,37.15,93.25,43.58,61.72,33.13,195.9,95.94,59.41,119.62Z"/>
    <polygon class="cls-7" points="458.32 1053.08 319.47 1293.93 290.75 1344.73 190.85 1368.4 136.63 1381.25 114.46 1290.44 202.43 1176.77 458.32 1053.08"/>
    <polygon class="cls-29" points="940.14 614.9 567.1 877.57 237.68 1130.08 490.22 786.13 940.14 614.9"/>
    <polygon class="cls-17" points="1003.57 571.56 940.14 614.9 490.22 786.13 865.63 537.27 1003.57 571.56"/>
    <polygon class="cls-13" points="1379.25 231.73 1163.33 267.92 1212.39 225.78 1379.25 231.73"/>
    <polygon class="cls-34" points="1090.1 267.24 1023.2 236.73 1163.33 267.92 1156.18 297.37 1090.1 267.24 1090.1 267.24"/>
    <polygon class="cls-6" points="1156.18 297.37 1150.7 320 1023.2 236.73 1156.18 297.37"/>
    <polygon class="cls-20" points="1150.7 320 1144.89 343.97 1023.2 236.73 1150.7 320"/>
    <polygon class="cls-35" points="1276.02 379.71 1236.58 373.98 1140.97 360.09 1248.38 360.09 1276.02 379.71"/>
    <polygon class="cls-24" points="1341.26 475.03 1295.08 447.72 1295.07 447.71 1292.55 435.34 1236.58 373.98 1276.02 379.71 1336.29 447.7 1336.3 447.71 1341.26 475.03"/>
    <polygon class="cls-27" points="1336.29 447.7 1276.02 379.71 1328.9 417.25 1335.44 442.96 1336.29 447.7"/>
    <polygon class="cls-8" points="1346.71 505.52 1320.36 490.59 1298.63 465.1 1295.08 447.72 1341.26 475.03 1346.71 505.52"/>
    <polygon class="cls-25" points="1356.16 554.73 1311.09 698.25 1240.75 757.31 1318.72 563.47 1298.63 465.1 1320.36 490.59 1356.16 554.73"/>
    <polygon class="cls-10" points="1279.46 804.94 1174.42 902.74 1240.75 757.31 1279.46 804.94"/>
    <polygon class="cls-26" points="1240.75 757.31 1174.42 902.74 1068.04 1002.02 1081.79 810.12 1240.75 757.31"/>
    <polygon class="cls-1" points="1083.18 790.66 1081.79 810.12 1068.04 1002.02 1062.82 1006.89 1062.82 941.16 1059.73 811.84 1083.18 790.66"/>
    <polygon class="cls-28" points="1062.82 941.16 928.32 1062.14 917.68 1070.61 917.67 1070.61 901.06 1071.66 880.35 1049.28 911.78 1034.51 999.93 921 1059.73 811.84 1062.82 941.16"/>
    <polygon class="cls-10" points="873.26 1105.96 817.64 1235.99 812.19 1254.56 741.3 1304.8 753.3 1203.59 873.26 1105.96"/>
    <polygon class="cls-3" points="778.38 1446.98 783.4 1480.82 721.68 1447.69 741.3 1304.8 812.19 1254.56 778.38 1446.98"/>
    <polygon class="cls-3" points="1311.09 698.25 1279.46 804.94 1240.75 757.31 1311.09 698.25"/>
    <polygon class="cls-16" points="1847.88 236.73 1837.25 237.12 1670.95 211.49 1325.63 194.03 1363.79 169.1 1387.06 154.33 1717.11 201.01 1847.88 236.73"/>
    <polygon class="cls-14" points="1837.25 237.12 1710.47 241.73 1696.44 241.3 1325.63 194.03 1670.95 211.49 1837.25 237.12"/>
    <polygon class="cls-1" points="901.06 1071.66 687.32 1156.44 709.41 1120.01 751.67 1105.48 780.56 1088.46 880.35 1049.28 901.06 1071.66"/>
    <polygon class="cls-17" points="956.32 929.73 880.35 1049.28 780.56 1088.46 725.23 1109.29 841.09 956.88 956.32 929.73"/>
    <polygon class="cls-29" points="999.93 921 911.78 1034.51 880.35 1049.28 956.32 929.73 999.93 921"/>
    <polygon class="cls-22" points="1066 741.83 1059.73 811.84 999.93 921 956.32 929.73 841.09 956.88 832.91 957.82 667.69 998.55 590.27 1015.47 470.69 1211.06 346 1256.78 567.1 877.57 1066 741.83"/>
    <polygon class="cls-17" points="1066 693.01 1066 741.83 567.1 877.57 961.31 626.09 1035.47 664.68 1066 693.01"/>
    <polygon class="cls-5" points="961.31 626.09 567.1 877.57 940.14 614.9 961.31 626.09"/>
    <polygon class="cls-21" points="1035.47 664.68 961.31 626.09 940.14 614.9 1003.57 571.56 1035.47 664.68"/>
    <polygon class="cls-15" points="1318.72 563.47 1240.75 757.31 1081.79 810.12 1083.18 790.66 1318.72 563.47"/>
    <polygon class="cls-18" points="419.79 1252.33 248.23 1407.29 190.85 1368.4 290.75 1344.73 319.47 1293.93 419.79 1252.33"/>
    <polygon class="cls-20" points="1318.72 563.47 1149.33 499.16 1140.97 360.09 1292.55 435.34 1295.07 447.71 1295.08 447.72 1298.63 465.1 1318.72 563.47"/>
    <polygon class="cls-23" points="1318.72 563.47 1083.18 790.66 1076.63 609.03 1318.72 563.47"/>
    <line class="cls-37" x1="1081.79" y1="810.12" x2="1081.78" y2="810.12"/>
    <polygon class="cls-33" points="1356.16 554.73 1320.36 490.59 1346.71 505.52 1356.16 554.73"/>
    <polygon class="cls-36" points="1292.55 435.34 1140.97 360.09 1236.58 373.98 1292.55 435.34"/>
    <polygon class="cls-31" points="1242.39 201.49 1212.39 225.78 1163.33 267.92 1023.2 236.73 1242.39 201.49"/>
    <polygon class="cls-24" points="1379.25 231.73 1212.4 225.78 1242.39 201.49 1325.63 194.03 1379.25 231.73"/>
    <polygon class="cls-9" points="1696.44 241.3 1379.25 231.73 1325.63 194.03 1696.44 241.3"/>
    <polygon class="cls-24" points="1387.06 154.34 1325.63 194.03 1293.1 167.67 1280.37 157.13 1261.66 141.64 1358.76 172.62 1387.06 154.34"/>
    <polygon class="cls-12" points="1387.06 154.34 1358.76 172.62 1261.66 141.64 1369.61 147.98 1387.06 154.34"/>
    <polygon class="cls-4" points="1325.63 194.03 1242.39 201.49 1255.66 186.41 1280.37 157.13 1293.1 167.67 1325.63 194.03"/>
    <polygon class="cls-29" points="1280.37 157.13 1255.66 186.41 1242.39 201.49 1073.91 126.23 1261.66 141.64 1280.37 157.13"/>
  </g>
  <polygon class="cls-3" points="628.44 1404.11 546.3 1373.32 614.27 1366.96 628.44 1404.11"/>
  <polygon class="cls-3" points="937.42 1600.66 979.31 1576.77 1038.72 1696.39 992.67 1698.78 937.42 1600.66"/>
</svg>